<svg width="24" height="24" viewBox="0 0 24 24" fill="none" xmlns="http://www.w3.org/2000/svg">
    <g clip-path="url(#dyvelynipa)" fill="#fff">
        <path d="M6.706 2.588a.59.59 0 0 0-.589.588v.589H4.353a1.77 1.77 0 0 0-1.765 1.764v14.118c0 1 .765 1.765 1.765 1.765h15.294c1 0 1.764-.765 1.764-1.765V5.529c0-1-.764-1.764-1.764-1.764h-1.765v-.589c0-.353-.235-.588-.588-.588s-.588.235-.588.588v.589H7.293v-.589c0-.353-.236-.588-.588-.588zm13.529 17.059c0 .353-.235.588-.588.588H4.353c-.353 0-.589-.235-.589-.588V8.47h16.471v11.177zm-3.53-14.706v.588c0 .353.236.589.589.589s.588-.236.588-.589v-.588h1.765c.353 0 .588.235.588.588v1.765H3.765V5.529c0-.353.235-.588.588-.588h1.764v.588c0 .353.236.589.589.589.352 0 .588-.236.588-.589v-.588h9.412z"/>
        <path d="M6.176 13.47H8.53c.353 0 .588-.235.588-.588V10.53c0-.352-.235-.588-.588-.588H6.176c-.353 0-.588.236-.588.588v2.353c0 .353.235.589.588.589zm.588-2.352h1.177v1.176H6.764v-1.176zM10.882 13.47h2.353c.353 0 .588-.235.588-.588V10.53c0-.352-.235-.588-.588-.588h-2.353c-.353 0-.588.236-.588.588v2.353c0 .353.235.589.588.589zm.588-2.352h1.177v1.176H11.47v-1.176zM15.588 13.47h2.353c.353 0 .588-.235.588-.588V10.53c0-.352-.235-.588-.588-.588h-2.353c-.353 0-.588.236-.588.588v2.353c0 .353.235.589.588.589zm.589-2.352h1.176v1.176h-1.177v-1.176zM6.176 18.765H8.53c.353 0 .588-.236.588-.589v-2.353c0-.353-.235-.588-.588-.588H6.176c-.353 0-.588.235-.588.588v2.353c0 .353.235.589.588.589zm.588-2.353h1.177v1.176H6.764v-1.176zM10.882 18.765h2.353c.353 0 .588-.236.588-.589v-2.353c0-.353-.235-.588-.588-.588h-2.353c-.353 0-.588.235-.588.588v2.353c0 .353.235.589.588.589zm.588-2.353h1.177v1.176H11.47v-1.176zM15.588 18.765h2.353c.353 0 .588-.236.588-.589v-2.353c0-.353-.235-.588-.588-.588h-2.353c-.353 0-.588.235-.588.588v2.353c0 .353.235.589.588.589zm.589-2.353h1.176v1.176h-1.177v-1.176z"/>
    </g>
    <defs>
        <clipPath id="dyvelynipa">
            <path fill="#fff" transform="translate(2 2)" d="M0 0h20v20H0z"/>
        </clipPath>
    </defs>
</svg>
