<svg width="24" height="24" viewBox="0 0 24 24" fill="none" xmlns="http://www.w3.org/2000/svg">
    <path d="M7.22 2.795 3.795 6.22a1.008 1.008 0 0 0-.295.713v12.912c0 .557.451 1.009 1.008 1.009h12.2a4.314 4.314 0 0 0 4.31-4.31c0-2.03-1.409-3.735-3.3-4.19V3.508c0-.557-.452-1.008-1.01-1.008H7.934c-.268 0-.524.106-.713.295zM5.517 18.837V7.94h2.416c.557 0 1.008-.451 1.008-1.008V4.517h6.76v7.837a4.293 4.293 0 0 0-1.501.688H6.759a1.008 1.008 0 0 0 0 2.017h5.904l-.006.017H6.76a1.008 1.008 0 0 0 0 2.017h5.675c.081.634.3 1.226.627 1.744H5.517zm11.192 0a2.296 2.296 0 0 1-2.293-2.293 2.296 2.296 0 0 1 2.293-2.293 2.296 2.296 0 0 1 2.293 2.293 2.296 2.296 0 0 1-2.293 2.293z" stroke="#fff"/>
    <path d="M18.019 15.234a.508.508 0 0 0-.719 0l-.591.591-.591-.59a.508.508 0 0 0-.72.718l.592.591-.591.591a.508.508 0 0 0 .719.72l.59-.592.592.591a.507.507 0 0 0 .719 0 .508.508 0 0 0 0-.719l-.591-.59.59-.592a.508.508 0 0 0 .001-.719z" fill="#fff"/>
    <path d="M14.283 9.991H6.756l-.003-.002a.01.01 0 0 1-.002-.003V9.98l.002-.003a.01.01 0 0 1 .003-.002h7.531l.002.002a.007.007 0 0 1 .002.003v.006s0 .002-.002.003a.01.01 0 0 1-.002.002h-.004zM14.283 7.958h-4.32l-.003-.002a.01.01 0 0 1-.002-.003v-.007l.002-.002a.01.01 0 0 1 .003-.002h4.323s.002 0 .003.002a.01.01 0 0 1 .002.002v.007a.01.01 0 0 1-.005.005h-.003zM14.283 12.025H6.756a.01.01 0 0 1-.005-.005v-.006l.002-.003a.007.007 0 0 1 .003-.002h7.531l.002.002a.007.007 0 0 1 .002.003v.006s0 .002-.002.003a.01.01 0 0 1-.002.002h-.004z" fill="#000" stroke="#fff"/>
</svg>
