<svg width="24" height="24" viewBox="0 0 24 24" fill="none" xmlns="http://www.w3.org/2000/svg">
    <g clip-path="url(#i8p6alu9na)" fill="#fff">
        <path d="M7.898 19.46v-.222c.558-.12.977-.617.977-1.21v-.65c0-.683-.555-1.237-1.237-1.237h-.651a.065.065 0 0 1-.065-.065v-.652c0-.035.03-.065.065-.065h.651c.036 0 .065.03.065.066a.586.586 0 0 0 1.172 0c0-.593-.42-1.09-.977-1.21v-.223a.586.586 0 0 0-1.171 0v.223a1.24 1.24 0 0 0-.977 1.21v.65c0 .683.555 1.238 1.237 1.238h.651c.036 0 .065.029.065.065v.65c0 .037-.03.066-.065.066h-.651a.065.065 0 0 1-.065-.065.586.586 0 0 0-1.172 0c0 .592.42 1.089.977 1.209v.223a.586.586 0 0 0 1.171 0z"/>
        <path d="m21.79 6.078-3.907-3.906A.586.586 0 0 0 17.47 2H8.484a1.76 1.76 0 0 0-1.757 1.758v7.728a5.28 5.28 0 0 0-4.688 5.24A5.28 5.28 0 0 0 7.313 22h12.89a1.76 1.76 0 0 0 1.758-1.758V6.492a.586.586 0 0 0-.172-.414zm-3.735-2.077.953.952.952.953h-1.905V4.001zM3.21 16.727a4.106 4.106 0 0 1 4.101-4.102 4.106 4.106 0 0 1 4.102 4.102 4.106 4.106 0 0 1-4.101 4.101 4.106 4.106 0 0 1-4.102-4.101zm16.992 4.101h-9.58a5.27 5.27 0 0 0 1.93-3.515h6.088a.586.586 0 1 0 0-1.172h-6.088a5.24 5.24 0 0 0-.858-2.344h6.946a.586.586 0 0 0 0-1.172h-8.018a5.25 5.25 0 0 0-2.725-1.14V3.759c0-.323.263-.586.586-.586h8.399v3.32c0 .324.262.586.586.586h3.32v13.164a.587.587 0 0 1-.586.586z"/>
        <path d="M18.64 9.11h-8.593a.586.586 0 1 0 0 1.171h8.594a.586.586 0 1 0 0-1.172z"/>
    </g>
    <defs>
        <clipPath id="i8p6alu9na">
            <path fill="#fff" transform="translate(2 2)" d="M0 0h20v20H0z"/>
        </clipPath>
    </defs>
</svg>
