<svg width="24" height="24" viewBox="0 0 24 24" fill="none" xmlns="http://www.w3.org/2000/svg">
    <path d="M12 20.84c-.248 0-.492-.064-.709-.186l-2.808-1.56a8.965 8.965 0 0 1-4.608-7.83v-4.33a1.456 1.456 0 0 1 1.307-1.45 14.419 14.419 0 0 0 6.056-2.071 1.46 1.46 0 0 1 1.524 0 14.418 14.418 0 0 0 6.056 2.072 1.456 1.456 0 0 1 1.307 1.449v4.33a8.964 8.964 0 0 1-4.608 7.83l-2.809 1.56c-.216.122-.46.185-.708.186zm0-16.393a.2.2 0 0 0-.104.029 15.643 15.643 0 0 1-6.582 2.251.207.207 0 0 0-.189.207v4.33A7.712 7.712 0 0 0 9.09 18l2.81 1.56a.204.204 0 0 0 .2.001l2.81-1.56a7.712 7.712 0 0 0 3.965-6.738v-4.33a.206.206 0 0 0-.189-.207 15.643 15.643 0 0 1-6.582-2.25.196.196 0 0 0-.104-.03z" fill="#fff"/>
    <path d="M11.583 13.875a.622.622 0 0 1-.415-.158L9.293 12.05a.625.625 0 0 1 .83-.934l1.42 1.262 2.71-2.889a.625.625 0 1 1 .911.855l-3.125 3.334a.623.623 0 0 1-.456.197z" fill="#fff"/>
</svg>
