<svg width="120" height="120" viewBox="0 0 120 120" fill="none" xmlns="http://www.w3.org/2000/svg">
    <rect x=".25" y=".25" width="119.5" height="119.5" rx="3.75" stroke="#00126B" stroke-width=".5"/>
    <g clip-path="url(#gibf190k8a)">
        <path d="M68.214 44.214h-6.071a.357.357 0 0 1-.357-.357v-6.071a1.786 1.786 0 0 0-3.572 0v6.071c0 .197-.16.357-.357.357h-6.071a1.786 1.786 0 0 0 0 3.572h6.071c.197 0 .357.16.357.357v6.071a1.786 1.786 0 0 0 3.572 0v-6.071c0-.197.16-.357.357-.357h6.071a1.786 1.786 0 0 0 0-3.572z" fill="#00126B"/>
    </g>
    <path d="m19.532 80 5.12-11.2h1.168L30.94 80h-1.248l-4.704-10.512h.48L20.764 80h-1.232zm2.016-2.992.352-.96h6.512l.352.96h-7.216zm14.27 3.072c-.8 0-1.52-.181-2.16-.544a3.952 3.952 0 0 1-1.487-1.504c-.363-.65-.544-1.397-.544-2.24 0-.853.181-1.6.544-2.24a3.837 3.837 0 0 1 1.488-1.488c.64-.363 1.36-.544 2.16-.544.736 0 1.392.165 1.968.496.586.33 1.05.816 1.392 1.456.352.63.528 1.403.528 2.32 0 .907-.171 1.68-.512 2.32a3.638 3.638 0 0 1-1.392 1.472c-.576.33-1.238.496-1.984.496zm.08-1.008c.598 0 1.131-.133 1.6-.4.48-.277.854-.661 1.12-1.152.278-.501.417-1.077.417-1.728 0-.661-.139-1.237-.416-1.728-.267-.49-.64-.87-1.12-1.136a3.085 3.085 0 0 0-1.6-.416c-.587 0-1.115.139-1.584.416a2.94 2.94 0 0 0-1.12 1.136c-.278.49-.416 1.067-.416 1.728 0 .65.138 1.227.416 1.728.277.49.65.875 1.12 1.152.469.267.997.4 1.584.4zm3.169.928v-2.528l.112-1.696-.16-1.696v-5.952h1.136V80h-1.088zm7.595.08c-.8 0-1.52-.181-2.16-.544a3.95 3.95 0 0 1-1.488-1.504c-.362-.65-.544-1.397-.544-2.24 0-.853.182-1.6.544-2.24a3.836 3.836 0 0 1 1.488-1.488c.64-.363 1.36-.544 2.16-.544.736 0 1.392.165 1.968.496.587.33 1.051.816 1.392 1.456.352.63.528 1.403.528 2.32 0 .907-.17 1.68-.512 2.32a3.64 3.64 0 0 1-1.392 1.472c-.576.33-1.237.496-1.984.496zm.08-1.008c.598 0 1.131-.133 1.6-.4.48-.277.854-.661 1.12-1.152.278-.501.416-1.077.416-1.728 0-.661-.138-1.237-.416-1.728-.266-.49-.64-.87-1.12-1.136a3.086 3.086 0 0 0-1.6-.416c-.586 0-1.114.139-1.584.416a2.94 2.94 0 0 0-1.12 1.136c-.277.49-.416 1.067-.416 1.728 0 .65.139 1.227.416 1.728.278.49.651.875 1.12 1.152.47.267.998.4 1.584.4zM49.91 80v-2.528l.112-1.696-.16-1.696v-5.952h1.136V80H49.91zm18.936-8.48c.682 0 1.274.133 1.776.4.512.256.906.65 1.184 1.184.288.533.432 1.205.432 2.016V80h-1.136v-4.768c0-.885-.214-1.552-.64-2-.416-.459-1.008-.688-1.776-.688-.576 0-1.078.123-1.504.368a2.428 2.428 0 0 0-.976 1.04c-.224.448-.336.992-.336 1.632V80h-1.136v-4.768c0-.885-.214-1.552-.64-2-.427-.459-1.024-.688-1.792-.688-.566 0-1.062.123-1.488.368a2.4 2.4 0 0 0-.992 1.04c-.224.448-.336.992-.336 1.632V80H58.35v-8.4h1.088v2.272l-.176-.4a2.97 2.97 0 0 1 1.232-1.424c.576-.352 1.253-.528 2.032-.528.821 0 1.52.208 2.096.624.576.405.949 1.019 1.12 1.84l-.448-.176a3.283 3.283 0 0 1 1.296-1.648c.629-.427 1.381-.64 2.256-.64zm9.896 8.56c-.81 0-1.541-.181-2.192-.544a4.154 4.154 0 0 1-1.52-1.52c-.373-.65-.56-1.392-.56-2.224 0-.843.187-1.584.56-2.224.374-.64.88-1.141 1.52-1.504s1.371-.544 2.192-.544c.832 0 1.568.181 2.208.544.651.363 1.158.864 1.52 1.504.374.64.56 1.381.56 2.224 0 .832-.186 1.573-.56 2.224a4.001 4.001 0 0 1-1.52 1.52c-.65.363-1.386.544-2.208.544zm0-1.008c.608 0 1.147-.133 1.616-.4.47-.277.838-.661 1.104-1.152.278-.501.416-1.077.416-1.728 0-.661-.138-1.237-.416-1.728a2.831 2.831 0 0 0-1.104-1.136 3.086 3.086 0 0 0-1.6-.416c-.597 0-1.13.139-1.6.416a2.94 2.94 0 0 0-1.12 1.136c-.277.49-.416 1.067-.416 1.728 0 .65.139 1.227.416 1.728.278.49.651.875 1.12 1.152.47.267.998.4 1.584.4zM85.35 80v-8.4h1.088v2.288l-.112-.4c.234-.64.629-1.125 1.184-1.456.554-.341 1.242-.512 2.064-.512v1.104h-.128a.524.524 0 0 0-.128-.016c-.886 0-1.579.272-2.08.816-.502.533-.752 1.296-.752 2.288V80H85.35zm9.786.08c-.874 0-1.642-.181-2.304-.544a4.085 4.085 0 0 1-1.552-1.52c-.373-.65-.56-1.392-.56-2.224 0-.832.176-1.568.528-2.208a3.986 3.986 0 0 1 1.472-1.504 4.061 4.061 0 0 1 2.112-.56c.79 0 1.488.181 2.096.544a3.732 3.732 0 0 1 1.456 1.504c.352.64.528 1.381.528 2.224 0 .053-.005.112-.016.176v.176h-7.312v-.848h6.704l-.448.336c0-.608-.133-1.147-.4-1.616a2.815 2.815 0 0 0-1.056-1.12c-.448-.267-.965-.4-1.552-.4a3.03 3.03 0 0 0-1.552.4 2.78 2.78 0 0 0-1.072 1.12c-.256.48-.384 1.03-.384 1.648v.176c0 .64.139 1.205.416 1.696.288.48.683.859 1.184 1.136.512.267 1.094.4 1.744.4.512 0 .987-.09 1.424-.272a2.962 2.962 0 0 0 1.152-.832l.64.736c-.373.448-.842.79-1.408 1.024a4.676 4.676 0 0 1-1.84.352z" fill="#00126B"/>
    <defs>
        <clipPath id="gibf190k8a">
            <path fill="#fff" transform="translate(50 36)" d="M0 0h20v20H0z"/>
        </clipPath>
    </defs>
</svg>
