<svg width="120" height="120" viewBox="0 0 120 120" fill="none" xmlns="http://www.w3.org/2000/svg">
    <circle cx="60" cy="60" r="59.75" fill="#F9F9F9" stroke="#E0E3E9" stroke-width=".5"/>
    <g clip-path="url(#zhuz2o4lxa)" fill="#727C96">
        <path d="M72.27 46.054h-.853l-3.671-4.76a5.08 5.08 0 0 0-3.993-1.963h-6.495a5.078 5.078 0 0 0-3.993 1.963l-3.67 4.76h-.854a8.413 8.413 0 0 0-8.404 8.403v16.807a8.414 8.414 0 0 0 8.404 8.403h23.53a8.414 8.414 0 0 0 8.403-8.403V54.457a8.413 8.413 0 0 0-8.404-8.403zm-16.343-2.706a1.692 1.692 0 0 1 1.331-.656h6.495a1.694 1.694 0 0 1 1.33.656l2.088 2.706H53.84l2.087-2.706zm21.385 27.916a5.042 5.042 0 0 1-5.042 5.042H48.74a5.042 5.042 0 0 1-5.041-5.042V54.457a5.042 5.042 0 0 1 5.042-5.042h23.53a5.042 5.042 0 0 1 5.041 5.042v16.807z"/>
        <path d="M60.504 52.776A10.084 10.084 0 1 0 70.588 62.86a10.093 10.093 0 0 0-10.084-10.084zm0 16.807a6.723 6.723 0 1 1 0-13.445 6.723 6.723 0 0 1 0 13.445z"/>
    </g>
    <defs>
        <clipPath id="zhuz2o4lxa">
            <path fill="#fff" transform="translate(40.337 39.331)" d="M0 0h40.336v40.336H0z"/>
        </clipPath>
    </defs>
</svg>
