<svg width="54" height="55" viewBox="0 0 54 55" fill="none" xmlns="http://www.w3.org/2000/svg">
    <rect y=".5" width="54" height="54" rx="12" fill="#fff"/>
    <g clip-path="url(#s4fd36ylsa)" fill="#00126B">
        <path d="M18.09 16.753v18.514c0 .392.317.708.709.708H31.55a.708.708 0 0 0 .708-.708V16.753a.708.708 0 0 0-.708-.709H18.799a.708.708 0 0 0-.709.709zm11.336 15.633h-2.834a.708.708 0 1 1 0-1.417h2.834a.708.708 0 1 1 0 1.417zm-8.502-12.752h4.25a.708.708 0 1 1 0 1.417h-4.25a.708.708 0 1 1 0-1.417zm0 2.834h8.502a.708.708 0 1 1 0 1.417h-8.502a.708.708 0 1 1 0-1.417zm0 2.834h8.502a.708.708 0 1 1 0 1.416h-8.502a.708.708 0 1 1 0-1.416zm0 2.833h8.502a.708.708 0 1 1 0 1.417h-8.502a.708.708 0 1 1 0-1.417z"/>
        <path d="M23.05 40.226H35.8a.708.708 0 0 0 .709-.708V21.05a.708.708 0 0 0-.709-.709h-2.125v14.925a2.128 2.128 0 0 1-2.125 2.125h-9.21v2.126c0 .391.317.708.708.708z"/>
    </g>
    <defs>
        <clipPath id="s4fd36ylsa">
            <path fill="#fff" transform="translate(14.272 14.772)" d="M0 0h25.454v25.454H0z"/>
        </clipPath>
    </defs>
</svg>
