<svg width="32" height="32" viewBox="0 0 32 32" fill="none" xmlns="http://www.w3.org/2000/svg">
    <path fill-rule="evenodd" clip-rule="evenodd" d="m29.68 24.575.32.27v2.548H2v-2.546l.32-.27a13.145 13.145 0 0 0 2.32-2.647 11.07 11.07 0 0 0 1.269-4.344v-4.462a9.544 9.544 0 0 1 2.49-6.423c1.61-1.781 3.837-2.942 6.269-3.267V2.251a1.165 1.165 0 0 1 .082-.475c.06-.152.152-.29.269-.407.117-.117.257-.21.412-.273a1.299 1.299 0 0 1 1.395.273c.117.117.208.255.269.407.06.151.088.313.082.475v1.165c2.455.302 4.711 1.455 6.345 3.242 1.633 1.788 2.531 4.087 2.525 6.466v4.46a11.07 11.07 0 0 0 1.269 4.344c.66.98 1.456 1.87 2.365 2.647zM14.36 30.41a2.369 2.369 0 0 1-.832-1.476h4.933a2.369 2.369 0 0 1-.831 1.476 2.55 2.55 0 0 1-1.635.589 2.55 2.55 0 0 1-1.636-.589z" fill="#00126B"/>
</svg>
