<svg width="32" height="32" viewBox="0 0 32 32" fill="none" xmlns="http://www.w3.org/2000/svg">
    <rect x=".25" y=".25" width="31.5" height="31.5" rx="3.75" fill="#E46962"/>
    <rect x=".25" y=".25" width="31.5" height="31.5" rx="3.75" stroke="#E0E3E9" stroke-width=".5"/>
    <g clip-path="url(#2tmvkjfeja)" fill="#fff">
        <path d="M11.137 21.925a1.137 1.137 0 0 1-.806-.273 1.137 1.137 0 0 1 0-1.603l9.65-9.65a1.137 1.137 0 0 1 1.66 1.546l-9.708 9.707c-.22.19-.505.287-.796.273z"/>
        <path d="M20.776 21.925a1.136 1.136 0 0 1-.795-.33l-9.65-9.65a1.137 1.137 0 0 1 1.602-1.603l9.707 9.65a1.137 1.137 0 0 1 0 1.66c-.238.207-.55.305-.864.273z"/>
    </g>
    <defs>
        <clipPath id="2tmvkjfeja">
            <path fill="#fff" transform="translate(10 10)" d="M0 0h12v12H0z"/>
        </clipPath>
    </defs>
</svg>
