<svg width="32" height="32" viewBox="0 0 32 32" fill="none" xmlns="http://www.w3.org/2000/svg">
    <path d="M1.778 5.333a3.556 3.556 0 0 1 3.555-3.555h21.334a3.556 3.556 0 0 1 3.555 3.555v21.334a3.556 3.556 0 0 1-3.555 3.555H5.333a3.556 3.556 0 0 1-3.555-3.555V5.333z" fill="#5B6BBB"/>
    <path d="M15.175 19.753a.59.59 0 0 1-.838 0l-3.346-3.346a.889.889 0 0 1 0-1.257l.419-.419a.888.888 0 0 1 1.257 0l2.089 2.09 5.644-5.645a.889.889 0 0 1 1.257 0l.419.419a.889.889 0 0 1 0 1.257l-6.901 6.901z" fill="#fff"/>
</svg>
