<svg width="101" height="86" viewBox="0 0 101 86" fill="none" xmlns="http://www.w3.org/2000/svg">
    <path d="M74.077 81.6s12.319-.767 20.797-15.916c8.477-15.148 6.949-38.257-3.595-51.094C80.736 1.754 64.32-2.615 48.66 1.495c-7.63 2.002-12.72 7.192-17.116 13.45-3.831 5.45-8.14 10.707-13.94 14.156-5.738 3.418-11.642 6.14-14.529 12.635-7.056 15.793-1.895 34.182 14.786 40.38 17.979 6.674 48.002 3.08 56.217-.515z" fill="#7F7EFF"/>
    <path opacity=".7" d="M74.077 81.6s12.319-.767 20.797-15.916c8.477-15.148 6.949-38.257-3.595-51.094C80.736 1.754 64.32-2.615 48.66 1.495c-7.63 2.002-12.72 7.192-17.116 13.45-3.831 5.45-8.14 10.707-13.94 14.156-5.738 3.418-11.642 6.14-14.529 12.635-7.056 15.793-1.895 34.182 14.786 40.38 17.979 6.674 48.002 3.08 56.217-.515z" fill="#fff"/>
    <mask id="i2w7m5ar8a" style="mask-type:luminance" maskUnits="userSpaceOnUse" x="3" y="10" width="74" height="76">
        <path d="M76.773 10H3.227v76h73.546V10z" fill="#fff"/>
    </mask>
    <g mask="url(#i2w7m5ar8a)">
        <path d="M47.228 60.944c6.146 0 11.128-6.343 11.128-14.166 0-7.824-4.982-14.166-11.128-14.166S36.1 38.954 36.1 46.778c0 7.823 4.982 14.166 11.128 14.166z" fill="#263238"/>
        <path d="M47.227 61.148c-6.259 0-11.34-6.447-11.34-14.37 0-7.924 5.086-14.375 11.34-14.375 6.255 0 11.337 6.447 11.337 14.374 0 7.928-5.086 14.37-11.337 14.37zm0-28.328c-6.025 0-10.923 6.259-10.923 13.957 0 7.699 4.898 13.953 10.923 13.953 6.026 0 10.92-6.258 10.92-13.953 0-7.694-4.899-13.957-10.92-13.957zM22.142 82.854c-1.022 0-2.182-.906-2.8-1.465-.868-.789-1.765-1.894-1.765-2.387 0-.705 8.345-25.87 9.31-28.728a.209.209 0 0 1 .337-.092l3.159 2.883a.209.209 0 0 1 .067.18l-3.113 27.339a.21.21 0 0 1-.1.154c-.13.08-3.176 1.932-4.932 2.107l-.163.009zm5.04-32.13c-2.628 7.929-9.117 27.54-9.18 28.303 0 .238.635 1.169 1.628 2.066.993.897 1.982 1.414 2.641 1.352 1.507-.15 4.173-1.69 4.67-1.995l3.091-27.122-2.85-2.603z" fill="#263238"/>
        <path d="m45.53 46.644-18.46 3.692 2.954 36.368h36.001l4.798-37.845-21.972-2.399-3.322.184z" fill="#7F7EFF"/>
        <path d="M66.025 86.913h-36a.205.205 0 0 1-.205-.192L26.86 50.353a.209.209 0 0 1 .167-.221l18.48-3.693 3.339-.188 22.002 2.404a.216.216 0 0 1 .142.075.213.213 0 0 1 .041.159l-4.798 37.849a.209.209 0 0 1-.209.175zm-35.805-.417h35.622l4.748-37.449-21.743-2.366-3.276.184-18.263 3.655 2.912 35.976z" fill="#263238"/>
        <mask id="sslscjnmlc" style="mask-type:luminance" maskUnits="userSpaceOnUse" x="27" y="46" width="44" height="41">
            <mask id="v0wyviechb" style="mask-type:luminance" maskUnits="userSpaceOnUse" x="27" y="46" width="44" height="41">
                <path d="m45.528 46.646-18.46 3.693 2.955 36.368h36.001l4.799-37.845-21.973-2.4-3.322.184z" fill="#fff"/>
            </mask>
            <g mask="url(#v0wyviechb)">
                <path d="M66.024 86.915H30.023a.204.204 0 0 1-.205-.192L26.86 50.355a.209.209 0 0 1 .167-.221l18.48-3.693 3.338-.188 22.002 2.404a.218.218 0 0 1 .142.075.215.215 0 0 1 .042.159L66.232 86.74a.208.208 0 0 1-.208.175zm-35.805-.417H65.84l4.749-37.449-21.744-2.366-3.275.184-18.264 3.655 2.913 35.976z" fill="#fff"/>
            </g>
        </mask>
        <g mask="url(#sslscjnmlc)">
            <path opacity=".3" d="M30.024 86.705h36l.906-7.123-.067-.346-8.687 1.894 3.789-15.947-20.846 9.158-5.053 5.053h3.158l-9.296 6.117.096 1.194z" fill="#000"/>
        </g>
        <path d="M43.568 44.596s-2.996 1.64-3.755 3.112c-.76 1.473-3.901 12.414-3.901 12.414l5.17 1.11-4.983 2.399 7.54 21.597 12-.738 7.812-22.707-4.803-2.028 4.248-1.849s-4.06-7.752-6.26-11.074c-2.198-3.321-13.068-2.236-13.068-2.236z" fill="#7F7EFF"/>
        <path d="M43.656 85.436a.209.209 0 0 1-.196-.137l-7.548-21.602a.209.209 0 0 1 .108-.254l4.435-2.137-4.59-.98a.219.219 0 0 1-.137-.096.213.213 0 0 1-.02-.167c.129-.446 3.179-10.97 3.917-12.447.739-1.477 3.697-3.133 3.822-3.204a.17.17 0 0 1 .08-.021c.446-.046 10.973-1.064 13.23 2.324 2.2 3.292 6.26 11.02 6.289 11.095a.196.196 0 0 1 0 .167.192.192 0 0 1-.113.12l-3.801 1.67 4.352 1.84a.213.213 0 0 1 .117.263l-7.782 22.707a.21.21 0 0 1-.184.138l-12 .738.02-.017zM36.37 63.74l7.43 21.28 11.684-.718 7.673-22.394-4.619-1.952a.208.208 0 0 1-.004-.384l4.044-1.757c-.651-1.252-4.173-7.878-6.163-10.849-2.053-3.08-12.063-2.211-12.802-2.144-.342.192-2.954 1.669-3.613 3.004-.66 1.335-3.376 10.623-3.826 12.163l4.952 1.06a.21.21 0 0 1 .163.18.217.217 0 0 1-.117.212l-4.802 2.3z" fill="#263238"/>
        <path d="m43.101 87.076-.154-38.029 9.968-.926 2.925 38.584-12.739.371z" fill="#fff"/>
        <path d="M43.1 87.285a.217.217 0 0 1-.145-.059.222.222 0 0 1-.063-.15l-.154-38.029a.204.204 0 0 1 .188-.208l9.968-.906a.193.193 0 0 1 .154.046c.044.037.07.09.075.146l2.921 38.584a.213.213 0 0 1-.122.204.2.2 0 0 1-.082.017l-12.735.371-.004-.016zm.055-38.05.154 37.624 12.305-.355-2.891-38.154-9.568.885z" fill="#263238"/>
        <path d="M41.47 39.075s1.289 7.202 1.477 9.046c.188 1.845 4.953 14.96 6.38 12.819 1.556-2.333 3.404-9.677 3.755-11.342.35-1.664.371-8.858.371-8.858s-4.786 3.321-11.983-1.665z" fill="#fff"/>
        <path d="M48.95 61.386a.718.718 0 0 1-.158-.021c-1.96-.488-5.875-11.441-6.054-13.223-.18-1.782-1.46-8.954-1.477-9.03a.209.209 0 0 1 .325-.208c7.002 4.848 11.717 1.694 11.763 1.669a.213.213 0 0 1 .217 0 .217.217 0 0 1 .112.188c0 .292 0 7.24-.375 8.904-.417 1.81-2.224 9.046-3.801 11.412a.656.656 0 0 1-.551.309zm-7.197-21.86c.292 1.669 1.252 7.001 1.39 8.574.18 1.799 4.135 12.46 5.741 12.86.075 0 .163 0 .263-.133 1.523-2.291 3.367-9.597 3.755-11.266.313-1.406.36-6.977.363-8.454-1.201.613-5.54 2.337-11.512-1.581z" fill="#263238"/>
        <mask id="ww2u1qcuye" style="mask-type:luminance" maskUnits="userSpaceOnUse" x="41" y="39" width="13" height="23">
            <mask id="4ahd80yzld" style="mask-type:luminance" maskUnits="userSpaceOnUse" x="41" y="39" width="13" height="23">
                <path d="M41.47 39.076s1.29 7.202 1.478 9.046c.188 1.844 4.953 14.959 6.38 12.818 1.556-2.332 3.404-9.676 3.755-11.341.35-1.665.371-8.858.371-8.858s-4.786 3.32-11.983-1.665z" fill="#fff"/>
            </mask>
            <g mask="url(#4ahd80yzld)">
                <path d="M48.952 61.386a.725.725 0 0 1-.159-.02c-1.96-.489-5.875-11.442-6.054-13.224-.18-1.781-1.46-8.954-1.477-9.029a.21.21 0 0 1 .21-.247c.041.001.081.014.115.038 7.002 4.849 11.717 1.694 11.763 1.67a.212.212 0 0 1 .217 0 .217.217 0 0 1 .112.187c0 .292 0 7.24-.375 8.904-.417 1.811-2.224 9.047-3.801 11.413a.655.655 0 0 1-.551.308zm-7.198-21.86c.292 1.67 1.252 7.002 1.39 8.575.18 1.798 4.135 12.46 5.741 12.86.075 0 .163 0 .263-.134 1.523-2.29 3.367-9.597 3.755-11.266.313-1.406.36-6.976.363-8.453-1.201.613-5.54 2.336-11.512-1.582z" fill="#fff"/>
            </g>
        </mask>
        <g mask="url(#ww2u1qcuye)">
            <path d="M53.395 45.526c.076-2.361.075-4.786.075-4.786s-4.802 3.338-12-1.669c0 0 .53 2.967.96 5.579.985 1.252 2.858 3.242 5.17 3.614 2.374.383 4.293-.877 5.795-2.738z" fill="#7F7EFF"/>
            <path opacity=".5" d="M53.395 45.526c.076-2.361.075-4.786.075-4.786s-4.802 3.338-12-1.669c0 0 .53 2.967.96 5.579.985 1.252 2.858 3.242 5.17 3.614 2.374.383 4.293-.877 5.795-2.738z" fill="#fff"/>
        </g>
        <path d="M57.346 31.877s2.028-2.587 2.028.368c0 2.954-2.028 3.338-2.028 3.338v-3.706z" fill="#fff"/>
        <path d="M57.346 35.779a.196.196 0 0 1-.133-.05.192.192 0 0 1-.075-.159v-3.692a.21.21 0 0 1 .041-.13c.18-.225 1.098-1.335 1.799-1.093.417.142.605.663.605 1.59 0 3.092-2.178 3.526-2.199 3.53l-.038.004zm.21-3.83v3.337c.504-.2 1.61-.888 1.61-3.041 0-.977-.226-1.16-.322-1.194-.308-.104-.93.46-1.289.897z" fill="#263238"/>
        <path d="M37.222 25.785s2.399 10.878 2.399 12.368c0 3.133 5.908 6.647 8.491 7.385 2.583.739 8.863-4.986 9.234-6.463.371-1.477.55-14.4-.188-16.983-.738-2.582-4.973-4.247-7.752-4.247-2.78 0-10.89 1.477-12.184 7.94z" fill="#fff"/>
        <path d="M48.621 45.813c-.19.002-.38-.023-.563-.075-2.504-.718-8.646-4.264-8.646-7.586 0-1.448-2.37-12.213-2.395-12.321a.306.306 0 0 1 0-.088c1.323-6.618 9.597-8.107 12.389-8.107 2.791 0 7.177 1.669 7.953 4.398.776 2.729.55 15.643.187 17.107-.27 1.09-3.313 4.098-6.05 5.68-1.16.654-2.124.992-2.875.992zM37.434 25.785c.188.855 2.396 10.911 2.396 12.372 0 2.987 5.795 6.455 8.345 7.185.688.196 1.765-.113 3.117-.893 2.712-1.565 5.628-4.523 5.841-5.425.347-1.39.555-14.295-.183-16.873-.714-2.504-4.949-4.098-7.553-4.098-2.691 0-10.665 1.423-11.962 7.728v.004z" fill="#263238"/>
        <mask id="fgbzapsc6g" style="mask-type:luminance" maskUnits="userSpaceOnUse" x="37" y="17" width="21" height="29">
            <mask id="ysyywkaklf" style="mask-type:luminance" maskUnits="userSpaceOnUse" x="37" y="17" width="21" height="29">
                <path d="M37.223 25.786s2.4 10.878 2.4 12.367c0 3.134 5.908 6.647 8.49 7.386 2.583.738 8.863-4.987 9.234-6.464.372-1.477.551-14.4-.187-16.982-.739-2.583-4.974-4.248-7.753-4.248s-10.89 1.477-12.184 7.94z" fill="#fff"/>
            </mask>
            <g mask="url(#ysyywkaklf)">
                <path d="M48.622 45.814a2 2 0 0 1-.563-.075c-2.504-.718-8.646-4.265-8.646-7.586 0-1.448-2.37-12.213-2.395-12.322a.306.306 0 0 1 0-.087c1.323-6.618 9.597-8.108 12.389-8.108 2.791 0 7.177 1.67 7.953 4.398.776 2.729.55 15.643.187 17.108-.27 1.089-3.313 4.097-6.05 5.679-1.16.655-2.124.993-2.875.993zM37.435 25.785c.188.856 2.396 10.912 2.396 12.372 0 2.988 5.795 6.455 8.345 7.185.688.196 1.765-.112 3.117-.893 2.712-1.564 5.629-4.523 5.841-5.424.347-1.39.555-14.295-.183-16.874-.714-2.504-4.949-4.098-7.553-4.098-2.691 0-10.665 1.423-11.963 7.728v.004z" fill="#fff"/>
            </g>
        </mask>
        <g mask="url(#fgbzapsc6g)">
            <path d="M49.407 17.845c-2.767 0-10.89 1.477-12.184 7.928 0 0 1.435 6.509 2.086 10.147 0-1.669.292-4.865 2.086-6.259 2.479-1.927 6.614-2.207 8.955-3.308 2.34-1.102 2.891-3.994 2.891-3.994s.138 5.095 1.252 6.339c1.114 1.243 2.207 2.086 2.345 4.268.138 2.182.55 4.406-.55 6.2-1.102 1.795-5.65 5.233-7.716 5.922-.317.108-.626.2-.918.287.163.059.321.113.467.155 2.587.738 8.863-4.986 9.234-6.464.372-1.477.551-14.4-.187-16.982-.739-2.583-4.983-4.24-7.761-4.24zM45.572 44.444c-1.005-1.013-3.755-3.822-5.007-5.27a9.176 9.176 0 0 1-.968-1.326v.304c.025 2.316 3.246 4.836 5.975 6.292z" fill="#7F7EFF"/>
            <g opacity=".5" fill="#fff">
                <path d="M49.407 17.845c-2.766 0-10.89 1.477-12.184 7.928 0 0 1.435 6.509 2.086 10.147 0-1.669.293-4.865 2.087-6.259 2.478-1.927 6.613-2.207 8.954-3.308 2.34-1.102 2.892-3.994 2.892-3.994s.137 5.095 1.252 6.339c1.114 1.243 2.207 2.086 2.344 4.268.138 2.182.551 4.406-.55 6.2-1.102 1.795-5.65 5.233-7.715 5.922-.318.108-.626.2-.918.287.162.059.32.113.467.155 2.587.738 8.862-4.986 9.234-6.464.371-1.477.55-14.4-.188-16.982-.739-2.583-4.982-4.24-7.76-4.24zM45.573 44.444c-1.006-1.013-3.755-3.822-5.007-5.27a9.168 9.168 0 0 1-.968-1.326v.304c.025 2.316 3.246 4.836 5.975 6.292z"/>
            </g>
        </g>
        <path d="M46.781 32.465c0 .518-.23.935-.517.935-.288 0-.522-.417-.522-.935 0-.517.234-.934.522-.934.288 0 .517.417.517.934zM52.86 32.465c0 .518-.233.935-.521.935-.288 0-.522-.417-.522-.935 0-.517.234-.934.522-.934.288 0 .522.417.522.934zM50.035 36.417a.2.2 0 0 1-.191-.133.208.208 0 0 1 .112-.272c.835-.325 2.011-.968 2.086-1.368.034-.155-.029-.209-.559-.326a2.086 2.086 0 0 1-1.047-.459c-.622-.621-.113-2.366-.05-2.562a.217.217 0 1 1 .417.121c-.2.651-.392 1.811-.054 2.15.244.183.532.301.834.341.418.096.998.226.877.835-.15.768-1.978 1.531-2.341 1.669a.191.191 0 0 1-.084.004zM48.187 39.196a2.504 2.504 0 0 1-2.203-1.073.206.206 0 0 1 .058-.287.209.209 0 0 1 .288.058c1.002 1.506 3.339.622 3.339.613a.209.209 0 1 1 .154.388 5.066 5.066 0 0 1-1.636.3zM44.357 31.013a.237.237 0 0 1-.075 0 .207.207 0 0 1-.135-.19.21.21 0 0 1 .014-.081c.216-.51.615-.923 1.118-1.156a2.445 2.445 0 0 1 1.924.067.209.209 0 1 1-.155.388 2.044 2.044 0 0 0-1.602-.075c-.4.191-.719.52-.897.926a.2.2 0 0 1-.192.121zM53.274 30.33a.222.222 0 0 1-.167-.08c-.417-.522-.797-.776-1.172-.76a1.31 1.31 0 0 0-.89.593.212.212 0 0 1-.348.012.204.204 0 0 1-.006-.233 1.706 1.706 0 0 1 1.218-.789c.535-.029 1.04.284 1.528.922a.209.209 0 0 1-.038.292.205.205 0 0 1-.125.042z" fill="#263238"/>
        <path d="M58.084 19.322c-1.827-2.087-3.755-1.961-4.906-1.51-1.561-2.63-6.718-4.716-13.353-2.183-7.752 2.954-6.83 10.895-6.459 12.372.371 1.477 2.954 5.353 4.615 5.537 0 0 1.477-1.294 1.477-2.583 0-1.29 3.51-3.877 7.014-4.986 2.207-.697 4.632-1.978 6.034-3.614a5.737 5.737 0 0 0 .797 3.059c1.11 1.669 2.77 2.587 2.77 3.142 0 .555.922 2.582 1.67 2.582.746 0 .738-2.954.921-4.247.184-1.294 2.003-4.615-.58-7.57z" fill="#263238"/>
        <path d="M37.96 33.746h-.025c-1.815-.204-4.419-4.21-4.794-5.695-.021-.092-2.061-9.317 6.593-12.614 6.388-2.437 11.683-.738 13.531 2.12.943-.317 3.005-.626 4.974 1.627 2.157 2.466 1.34 5.174.835 6.797a7.602 7.602 0 0 0-.247.94c-.046.312-.079.733-.117 1.176-.158 1.965-.317 3.25-1.014 3.25-.917 0-1.869-2.203-1.869-2.791 0-.175-.417-.568-.834-.943a11.482 11.482 0 0 1-1.895-2.087 5.516 5.516 0 0 1-.834-2.662c-1.327 1.348-3.443 2.562-5.783 3.3-3.539 1.12-6.869 3.644-6.869 4.787 0 1.368-1.485 2.683-1.547 2.741a.209.209 0 0 1-.105.054zM45.613 14.7a16.146 16.146 0 0 0-5.733 1.126c-8.316 3.171-6.355 12.034-6.334 12.126.367 1.468 2.82 5.065 4.347 5.366.284-.267 1.336-1.335 1.336-2.362 0-1.448 3.613-4.064 7.16-5.186 2.482-.78 4.702-2.112 5.937-3.551a.213.213 0 0 1 .234-.059.209.209 0 0 1 .134.196 5.525 5.525 0 0 0 .763 2.946 11.01 11.01 0 0 0 1.832 2.003c.584.538.972.893.972 1.252 0 .538.901 2.374 1.452 2.374.367 0 .53-2.007.601-2.867.033-.45.071-.876.117-1.201.064-.34.15-.674.259-1.002.492-1.635 1.251-4.11-.764-6.4-1.853-2.116-3.722-1.82-4.673-1.453a.209.209 0 0 1-.255-.091c-.98-1.644-3.647-3.217-7.385-3.217z" fill="#263238"/>
        <path d="M36.408 28.927h-.037a.208.208 0 0 1-.167-.242c.121-.646.576-1.197 1.394-1.694a.209.209 0 0 1 .212.36c-.705.416-1.097.888-1.197 1.414a.205.205 0 0 1-.205.162zM39.05 26.736a.213.213 0 0 1-.197-.133.209.209 0 0 1 .121-.267 35.19 35.19 0 0 1 4.432-1.252c1.118-.258 2.178-.509 3.058-.788 3.305-1.052 5.157-3.931 5.178-3.956a.205.205 0 0 1 .288-.067.208.208 0 0 1 .063.288 10.848 10.848 0 0 1-5.425 4.135c-.893.284-1.96.534-3.087.797a35.169 35.169 0 0 0-4.377 1.21.236.236 0 0 1-.055.034zM35.787 23.014a.195.195 0 0 1-.117-.037.209.209 0 0 1-.059-.288c.418-.647 1.544-.601 3.226-.534 1.363.076 2.73.068 4.093-.025 3.793-.305 7.181-2.587 7.215-2.612a.208.208 0 0 1 .287.058.205.205 0 0 1-.054.288c-.142.096-3.513 2.37-7.414 2.683-1.38.095-2.764.103-4.144.025-1.485-.058-2.558-.104-2.862.35a.206.206 0 0 1-.171.092zM58.202 25.193a.207.207 0 0 1-.2-.217 7.064 7.064 0 0 0-.113-1.54.205.205 0 0 1 .245-.246.206.206 0 0 1 .164.167c.098.54.139 1.088.12 1.636a.207.207 0 0 1-.136.187.207.207 0 0 1-.08.013zM57.86 22.768a.203.203 0 0 1-.197-.142 5.295 5.295 0 0 0-3.255-3.2.213.213 0 0 1-.145-.259.208.208 0 0 1 .258-.142 5.622 5.622 0 0 1 3.534 3.464.21.21 0 0 1-.196.28z" fill="#fff"/>
        <path d="M44.44 41.708a3.338 3.338 0 0 1-1.572-.325c-1.59-.835-4.415-4.59-4.532-4.766a.209.209 0 0 1 .334-.25c.03.038 2.883 3.851 4.394 4.648 1.51.797 4.343-.313 4.373-.325a.212.212 0 0 1 .227.052.21.21 0 0 1-.077.34 10.22 10.22 0 0 1-3.146.626z" fill="#263238"/>
        <path d="M48.546 40.92c0 .379-.467.692-1.039.692-.571 0-1.039-.313-1.039-.693 0-.38.463-.692 1.04-.692.575 0 1.038.308 1.038.692z" fill="#263238"/>
        <path d="M36.876 31.21s-3.426-8.872 0-14.163c0 0-5.295 5.446-.622 15.41l.622-1.248z" fill="#fff"/>
        <path d="M39.25 34.084c.313 2.087-.255 3.89-1.273 4.044-1.018.154-2.086-1.41-2.403-3.493-.318-2.082.258-3.889 1.272-4.043 1.014-.154 2.107 1.41 2.404 3.492z" fill="#fff"/>
        <path d="M37.852 38.336c-1.09 0-2.153-1.557-2.47-3.676a6.473 6.473 0 0 1 .146-2.842c.263-.834.726-1.356 1.302-1.44 1.143-.17 2.307 1.436 2.64 3.664.162.947.112 1.917-.145 2.842-.267.834-.726 1.356-1.302 1.44a1.18 1.18 0 0 1-.171.012zm-.835-7.553a.517.517 0 0 0-.112 0c-.418.059-.751.48-.964 1.152a6.067 6.067 0 0 0-.13 2.654c.288 1.928 1.277 3.45 2.166 3.313.417-.059.755-.48.968-1.152.237-.864.28-1.77.13-2.654-.297-1.835-1.219-3.304-2.074-3.304l.016-.009z" fill="#263238"/>
        <path d="M37.41 38.065c.902-.136 1.38-1.932 1.067-4.013-.313-2.08-1.298-3.657-2.2-3.521-.903.135-1.38 1.932-1.068 4.013.313 2.08 1.298 3.657 2.2 3.521z" fill="#fff"/>
        <path d="M37.293 38.287c-.475 0-.964-.363-1.385-1.035a7.119 7.119 0 0 1-.91-2.67c-.338-2.233.213-4.098 1.252-4.253 1.039-.154 2.086 1.47 2.441 3.697.158.937.13 1.895-.083 2.821-.226.835-.639 1.352-1.165 1.431l-.15.009zm-.918-7.553h-.07c-.677.1-1.21 1.67-.894 3.756.112.88.395 1.731.835 2.503.367.58.768.885 1.114.835.346-.05.647-.464.834-1.127.2-.87.226-1.77.076-2.65-.305-1.973-1.223-3.317-1.895-3.317z" fill="#263238"/>
        <path d="m70.824 48.86 4.81 38.032-9.609-.187 4.799-37.846z" fill="#7F7EFF"/>
        <path d="m75.635 87.101-9.597-.188a.21.21 0 0 1-.155-.07.21.21 0 0 1-.045-.163l4.794-37.846a.21.21 0 0 1 .209-.183.208.208 0 0 1 .204.183l4.81 38.03a.2.2 0 0 1-.05.166.208.208 0 0 1-.17.071zm-9.372-.6 9.134.179-4.59-36.16-4.544 35.98z" fill="#263238"/>
        <mask id="nwiegzj7yi" style="mask-type:luminance" maskUnits="userSpaceOnUse" x="66" y="48" width="10" height="39">
            <mask id="yfuytpia1h" style="mask-type:luminance" maskUnits="userSpaceOnUse" x="66" y="48" width="10" height="39">
                <path d="m70.824 48.857 4.81 38.033-9.609-.188 4.799-37.845z" fill="#fff"/>
            </mask>
            <g mask="url(#yfuytpia1h)">
                <path d="m75.635 87.1-9.597-.188a.208.208 0 0 1-.155-.071.21.21 0 0 1-.045-.163l4.794-37.845a.21.21 0 0 1 .209-.184.209.209 0 0 1 .204.184l4.81 38.028a.2.2 0 0 1-.05.167.208.208 0 0 1-.17.071zm-9.372-.602 9.134.18-4.59-36.16-4.544 35.98z" fill="#fff"/>
            </g>
        </mask>
        <g mask="url(#nwiegzj7yi)">
            <path opacity=".3" d="m73.444 69.6-5.003 3.005.083-5.62-2.5 19.719 9.61.188-.788-6.213-4.194.138 3.722-3.868-.029-.255-5.116 1.752 4.628-5.603-.413-3.242z" fill="#000"/>
        </g>
        <path d="M36.446 37.644s1.419-.497 1.727.05c.31.546.668 2.92.66 3.258-.009.338-.125.647-.768.418-.642-.23-1.669-2.32-1.669-2.32l.05-1.406z" fill="#fff"/>
        <path d="M38.444 41.675a1.333 1.333 0 0 1-.45-.092c-.685-.255-1.603-2.061-1.778-2.424a.25.25 0 0 1 0-.096l.042-1.402a.209.209 0 0 1 .138-.192c.267-.092 1.602-.522 1.977.146.33.58.701 3.017.689 3.367a.73.73 0 0 1-.259.597.605.605 0 0 1-.359.096zm-1.832-2.654c.389.78 1.123 2.02 1.523 2.17.288.104.389.058.418.041.029-.016.075-.12.08-.262 0-.288-.347-2.637-.635-3.15-.138-.251-.835-.155-1.34 0l-.046 1.201z" fill="#263238"/>
        <path d="M30.237 45.171s1.315-8.45 1.344-9.367c.029-.918 1.252-1.67 1.836-1.895.584-.225 3.922-.116 4.277-.104.354.013 1.781-.063 1.769.417-.013.48-.138.685-1.331.877-1.194.192-4.048.342-4.048.342l-.747 1.126 3.543.676s.834.367.684.94c-.15.57-.563 3.078-.571 3.42-.009.343-.376.564-1.223 1.115a4.308 4.308 0 0 1-1.669.638s.067 1.723-.417 1.936l-1.206.538-.167 9.86-5.445-.617 3.371-9.902z" fill="#fff"/>
        <path d="M32.306 55.862h-.025l-5.424-.618a.213.213 0 0 1-.155-.096.21.21 0 0 1 0-.18l3.372-9.863c.067-.418 1.31-8.45 1.335-9.322.03-1.051 1.369-1.873 1.974-2.086.605-.213 3.238-.15 4.352-.117h.188c.692 0 1.389.02 1.669.305a.418.418 0 0 1 .12.304c0 .66-.342.889-1.506 1.08-1.076.176-3.43.31-3.964.339l-.513.776 3.234.617h.046c.037 0 .976.447.8 1.177-.145.614-.558 3.08-.567 3.384 0 .417-.388.68-1.206 1.21l-.108.071a4.648 4.648 0 0 1-1.581.638c0 .568-.042 1.728-.543 1.953l-1.08.484-.167 9.727a.216.216 0 0 1-.071.154.209.209 0 0 1-.18.063zm-5.157-.985 4.953.567.163-9.63a.207.207 0 0 1 .125-.184l1.201-.538c.209-.096.322-.993.292-1.74a.209.209 0 0 1 .184-.217 4.076 4.076 0 0 0 1.59-.605l.112-.07c.714-.468 1.006-.664 1.014-.873 0-.384.455-2.92.58-3.467.084-.35-.417-.634-.546-.689l-3.518-.671a.212.212 0 0 1-.154-.126.217.217 0 0 1 0-.196l.743-1.126a.22.22 0 0 1 .166-.092c.026 0 2.854-.146 4.023-.338 1.168-.192 1.147-.371 1.156-.68-.038-.063-.263-.18-1.344-.18h-.225c-1.67-.05-3.785-.054-4.198.092-.563.2-1.669.926-1.698 1.707-.03.918-1.29 9.046-1.344 9.392v.033l-3.275 9.63z" fill="#263238"/>
        <path d="M37.28 38.85h-.037l-4.298-.772a.212.212 0 1 1 .075-.417l4.298.776a.21.21 0 1 1-.038.417v-.004zM36.792 40.777h-.046l-3.538-.86a.214.214 0 1 1 .096-.417l3.543.86a.2.2 0 0 1 .156.169.2.2 0 0 1-.006.081.204.204 0 0 1-.205.167zM34.092 43.544a.199.199 0 0 1-.175-.096c-.15-.234-.488-.806-.375-1.118a.334.334 0 0 1 .22-.209c.33-.1 1.098-.296 1.098-.296l.105.417s-.685.175-1.031.275c.07.257.182.5.334.718a.209.209 0 0 1-.063.288.234.234 0 0 1-.113.02z" fill="#263238"/>
        <path d="m27.354 49.965 5.883 2.22s-4.098 25.72-5.082 27.74c-.985 2.019-3.288 4.364-6.26 4.648-2.97.284-5.119-2.921-5.206-6.288-.088-3.368 10.665-28.32 10.665-28.32z" fill="#7F7EFF"/>
        <path d="M21.516 84.798a4.14 4.14 0 0 1-2.766-1.097c-1.352-1.202-2.228-3.271-2.283-5.425-.091-3.358 10.257-27.388 10.695-28.41a.209.209 0 0 1 .267-.11l5.883 2.216a.204.204 0 0 1 .134.226c-.167 1.051-4.114 25.778-5.108 27.798-1.06 2.17-3.463 4.485-6.438 4.769-.125.029-.254.033-.384.033zm5.95-34.566c-.976 2.279-10.665 24.932-10.581 28.049.05 2.023.872 3.98 2.144 5.107a3.66 3.66 0 0 0 2.834.976c2.812-.267 5.09-2.47 6.104-4.531.922-1.882 4.682-25.286 5.04-27.514l-5.54-2.087z" fill="#263238"/>
        <mask id="fx20qufzak" style="mask-type:luminance" maskUnits="userSpaceOnUse" x="16" y="49" width="18" height="36">
            <mask id="op5kaii03j" style="mask-type:luminance" maskUnits="userSpaceOnUse" x="16" y="49" width="18" height="36">
                <path d="m27.354 49.965 5.883 2.22s-4.098 25.72-5.082 27.74c-.985 2.019-3.288 4.364-6.26 4.648-2.97.284-5.119-2.921-5.206-6.288-.088-3.368 10.665-28.32 10.665-28.32z" fill="#fff"/>
            </mask>
            <g mask="url(#op5kaii03j)">
                <path d="M21.516 84.798A4.14 4.14 0 0 1 18.75 83.7c-1.352-1.201-2.228-3.271-2.283-5.424-.091-3.359 10.257-27.389 10.695-28.411a.209.209 0 0 1 .267-.109l5.883 2.216a.205.205 0 0 1 .134.225c-.167 1.052-4.114 25.778-5.108 27.798-1.06 2.17-3.463 4.486-6.438 4.77-.125.028-.254.033-.384.033zm5.95-34.566C26.49 52.51 16.801 75.163 16.885 78.28c.05 2.024.872 3.98 2.144 5.107a3.66 3.66 0 0 0 2.834.977c2.812-.267 5.09-2.47 6.104-4.532.922-1.881 4.682-25.285 5.04-27.514l-5.54-2.086z" fill="#fff"/>
            </g>
        </mask>
        <g mask="url(#fx20qufzak)">
            <path opacity=".3" d="M22.484 71.5a26.707 26.707 0 0 1-4.477 1.795c-.53 1.54-.934 2.846-1.151 3.78l2.783-.35a31.045 31.045 0 0 0 5.841-1.252s-4.59 2.842-8.683 3.317h-.096c.271 3.163 2.341 6.067 5.178 5.796 2.984-.284 5.283-2.633 6.26-4.648.483-.993 1.718-7.694 2.85-14.258a48.82 48.82 0 0 1-8.505 5.82z" fill="#000"/>
        </g>
    </g>
</svg>
