<svg width="24" height="24" viewBox="0 0 24 24" fill="none" xmlns="http://www.w3.org/2000/svg">
    <path d="M19.412 3.177h-1.765V4.94a.59.59 0 0 1-1.176 0V3.177H7.059V4.94a.59.59 0 0 1-1.177 0V3.177H4.118c-.883 0-1.53.764-1.53 1.764V7.06h18.824V4.94c0-1-1.059-1.764-2-1.764zM2.588 8.294V19.06c0 1.059.647 1.765 1.588 1.765h15.295c.94 0 2-.765 2-1.765V8.294H2.588zm5.236 9.883H6.412a.464.464 0 0 1-.47-.471v-1.47c0-.236.176-.471.47-.471h1.47c.236 0 .471.176.471.47v1.47c-.059.295-.235.472-.53.472zm0-5.295H6.412a.464.464 0 0 1-.47-.47v-1.47c0-.236.176-.471.47-.471h1.47c.236 0 .471.176.471.47v1.47c-.059.295-.235.471-.53.471zm4.705 5.295h-1.47a.464.464 0 0 1-.47-.471v-1.47c0-.236.176-.471.47-.471h1.47c.236 0 .471.176.471.47v1.47c0 .295-.176.472-.47.472zm0-5.295h-1.47a.464.464 0 0 1-.47-.47v-1.47c0-.236.176-.471.47-.471h1.47c.236 0 .471.176.471.47v1.47c0 .295-.176.471-.47.471zm4.706 5.295h-1.47a.464.464 0 0 1-.47-.471v-1.47c0-.236.176-.471.47-.471h1.47c.236 0 .47.176.47.47v1.47c0 .295-.176.472-.47.472zm0-5.295h-1.47a.464.464 0 0 1-.47-.47v-1.47c0-.236.176-.471.47-.471h1.47c.236 0 .47.176.47.47v1.47c0 .295-.176.471-.47.471z" fill="#727C96"/>
</svg>
