<svg width="24" height="24" viewBox="0 0 24 24" fill="none" xmlns="http://www.w3.org/2000/svg">
    <g clip-path="url(#n1hdtkz0ya)" fill="#727C96">
        <path d="M3.993 7.62 5.09 20.874a1.87 1.87 0 0 0 1.853 1.705h10.115c.96 0 1.773-.75 1.852-1.705l1.098-13.252H3.993zM8.9 20.1a.62.62 0 0 1-.618-.582l-.62-10a.62.62 0 0 1 .58-.657.61.61 0 0 1 .657.58l.62 10a.62.62 0 0 1-.62.658zm3.719-.62a.62.62 0 1 1-1.24 0v-10a.62.62 0 1 1 1.24 0v10zm3.717-9.961-.62 9.999a.619.619 0 1 1-1.237-.077l.62-10a.63.63 0 0 1 .658-.58.62.62 0 0 1 .58.658zM20.057 3.902H16.34v-.62c0-1.026-.834-1.86-1.86-1.86H9.521c-1.025 0-1.86.834-1.86 1.86v.62H3.943a1.24 1.24 0 1 0 0 2.479h16.114a1.24 1.24 0 0 0 0-2.48zm-4.958 0H8.901v-.62a.62.62 0 0 1 .62-.62h4.958a.62.62 0 0 1 .62.62v.62z"/>
    </g>
    <defs>
        <clipPath id="n1hdtkz0ya">
            <path fill="#fff" transform="translate(1.422 1.422)" d="M0 0h21.156v21.156H0z"/>
        </clipPath>
    </defs>
</svg>
