<svg width="24" height="24" viewBox="0 0 24 24" fill="none" xmlns="http://www.w3.org/2000/svg">
    <g clip-path="url(#vc1tl1lbqa)">
        <path d="M22.578 21.256c0 .73-.592 1.322-1.322 1.322H2.744a1.322 1.322 0 0 1 0-2.645h18.511c.73 0 1.323.593 1.323 1.323zm-11.513-4.189c.258.258.597.387.935.387.338 0 .677-.129.935-.387l4.684-4.685a1.322 1.322 0 1 0-1.87-1.87l-2.427 2.428V2.745a1.322 1.322 0 0 0-2.644 0V12.94L8.25 10.512a1.322 1.322 0 1 0-1.87 1.87l4.685 4.685z" fill="#727C96"/>
    </g>
    <defs>
        <clipPath id="vc1tl1lbqa">
            <path fill="#fff" transform="translate(1.422 1.422)" d="M0 0h21.156v21.156H0z"/>
        </clipPath>
    </defs>
</svg>
