<svg width="45" height="44" viewBox="0 0 45 44" fill="none" xmlns="http://www.w3.org/2000/svg">
    <g clip-path="url(#xf5xi7q0ma)">
        <path d="M27.817 12.89a5.162 5.162 0 0 0 5.156 5.156 5.162 5.162 0 0 0 5.156-5.156 5.162 5.162 0 0 0-5.156-5.156 5.162 5.162 0 0 0-5.156 5.156zm6.875 0a1.72 1.72 0 0 1-1.719 1.718 1.72 1.72 0 0 1-1.719-1.718 1.72 1.72 0 0 1 1.719-1.719 1.72 1.72 0 0 1 1.719 1.719zm7.378 21.323-3.941-3.94V42.45h-3.437V30.272l-3.941 3.941-2.43-2.43 8.09-8.09 8.089 8.09-2.43 2.43zM27.998 35.92l3.454 3.438H5.656C2.813 39.357.5 37.074.5 34.231V6.733c0-2.843 2.313-5.1 5.156-5.1H39.3c2.843 0 5.196 2.257 5.196 5.1v20.186L41.06 23.48V6.733c0-.948-.81-1.663-1.759-1.663H5.656c-.948 0-1.719.715-1.719 1.663v13.02l7.141-10.437 5.703 7.13 2.585-3.716L29.442 25.8l-2.449 2.449-7.488-9.7-10.64 15.295-2.821-1.963 8.69-12.492-3.44-4.3L3.937 25.84v8.391c0 .948.771 1.688 1.719 1.688h22.342z" fill="#00126B"/>
    </g>
    <defs>
        <clipPath id="xf5xi7q0ma">
            <path fill="#fff" transform="translate(.5)" d="M0 0h44v44H0z"/>
        </clipPath>
    </defs>
</svg>
