<svg width="32" height="32" viewBox="0 0 32 32" fill="none" xmlns="http://www.w3.org/2000/svg">
    <path d="M2 5.333A3.333 3.333 0 0 1 5.333 2h21.334A3.333 3.333 0 0 1 30 5.333v21.334A3.333 3.333 0 0 1 26.667 30H5.333A3.333 3.333 0 0 1 2 26.667V5.333z" stroke="#E46962" stroke-width=".444"/>
    <g clip-path="url(#95kbdccora)" fill="#E46962">
        <path d="M10.771 22.556a1.348 1.348 0 0 1-.956-.324 1.347 1.347 0 0 1 0-1.899L21.252 8.896a1.347 1.347 0 0 1 1.967 1.832L11.714 22.232c-.261.225-.599.34-.943.324z"/>
        <path d="M22.194 22.556a1.347 1.347 0 0 1-.943-.39L9.814 10.727a1.347 1.347 0 0 1 1.9-1.9l11.504 11.438a1.347 1.347 0 0 1 0 1.966 1.347 1.347 0 0 1-1.024.324z"/>
    </g>
    <defs>
        <clipPath id="95kbdccora">
            <path fill="#fff" transform="translate(9.423 8.423)" d="M0 0h14.222v14.222H0z"/>
        </clipPath>
    </defs>
</svg>
