<svg width="24" height="24" viewBox="0 0 24 24" fill="none" xmlns="http://www.w3.org/2000/svg">
    <path d="M5 3.557v14.546c0 .308.249.557.557.557h10.02a.556.556 0 0 0 .556-.556V3.556A.556.556 0 0 0 15.576 3H5.556A.556.556 0 0 0 5 3.557zm8.906 12.283H11.68a.556.556 0 1 1 0-1.113h2.226a.556.556 0 1 1 0 1.113zM7.226 5.82h3.34a.556.556 0 1 1 0 1.114h-3.34a.556.556 0 1 1 0-1.114zm0 2.227h6.68a.556.556 0 1 1 0 1.113h-6.68a.556.556 0 1 1 0-1.113zm0 2.226h6.68a.556.556 0 1 1 0 1.114h-6.68a.556.556 0 1 1 0-1.114zm0 2.227h6.68a.556.556 0 1 1 0 1.113h-6.68a.556.556 0 1 1 0-1.113z" fill="#fff"/>
    <path d="M8.896 22h10.02a.556.556 0 0 0 .557-.557V6.933a.556.556 0 0 0-.557-.556h-1.67v11.726c0 .921-.749 1.67-1.67 1.67H8.34v1.67c0 .308.249.557.556.557z" fill="#fff"/>
</svg>
