<svg width="32" height="32" viewBox="0 0 32 32" fill="none" xmlns="http://www.w3.org/2000/svg">
    <rect x=".25" y=".25" width="31.5" height="31.5" rx="3.75" fill="#00126B"/>
    <rect x=".25" y=".25" width="31.5" height="31.5" rx="3.75" stroke="#E0E3E9" stroke-width=".5"/>
    <g clip-path="url(#zbzkl3thra)">
        <path d="m20.2 11.772.752-.755a.239.239 0 0 0-.168-.408H18.62a.24.24 0 0 0-.239.24v2.17c0 .213.256.319.406.168l.57-.571a4.764 4.764 0 0 1 1.314 4.296c-.354 1.872-1.851 3.387-3.717 3.752a4.774 4.774 0 0 1-5.719-4.683 4.779 4.779 0 0 1 4.247-4.748.589.589 0 0 0 .516-.588.601.601 0 0 0-.67-.596 5.97 5.97 0 0 0-5.279 6.103c.087 3.115 2.677 5.712 5.782 5.799 3.366.093 6.122-2.614 6.122-5.967a5.94 5.94 0 0 0-1.753-4.212z" fill="#fff"/>
    </g>
    <defs>
        <clipPath id="zbzkl3thra">
            <path fill="#fff" transform="translate(10 10)" d="M0 0h12v12H0z"/>
        </clipPath>
    </defs>
</svg>
