<svg width="20" height="20" viewBox="0 0 20 20" fill="none" xmlns="http://www.w3.org/2000/svg">
    <g clip-path="url(#gkc0ucntla)">
        <path fill-rule="evenodd" clip-rule="evenodd" d="m43.227 5.294-.188-.896h-2.623v10.627h3.03V7.813c.717-.938 1.927-.755 2.312-.636V4.4c-.404-.145-1.821-.411-2.53.894v.001zm-6.08-3.529-2.96.629-.013 9.726c0 1.794 1.349 3.12 3.148 3.12.991 0 1.723-.188 2.129-.401V12.37c-.39.155-2.302.712-2.302-1.075V6.983h2.302V4.397h-2.302l-.003-2.632zm-8.21 5.717c0-.474.394-.657 1.03-.657a6.792 6.792 0 0 1 3.02.782V4.75a8.009 8.009 0 0 0-3.02-.555c-2.452 0-4.098 1.285-4.098 3.43 0 3.357 4.61 2.812 4.61 4.258 0 .567-.488.742-1.165.742-1.003 0-2.3-.415-3.317-.97v2.895a8.412 8.412 0 0 0 3.317.698c2.521 0 4.258-1.245 4.258-3.428 0-3.623-4.635-2.975-4.635-4.34v.002zM8.675 5.947c0-.856.712-1.187 1.864-1.187 1.905.04 3.775.525 5.461 1.413V1.004A14.49 14.49 0 0 0 10.539.001C6.1 0 3.125 2.325 3.125 6.207c0 6.072 8.339 5.086 8.339 7.703 0 1.024-.875 1.341-2.107 1.341-1.815 0-4.16-.75-6-1.75v5.236A15.22 15.22 0 0 0 9.358 20c4.56 0 7.704-2.253 7.704-6.202 0-6.553-8.387-5.383-8.387-7.85z" fill="#fff"/>
    </g>
    <defs>
        <clipPath id="gkc0ucntla">
            <path fill="#fff" d="M0 0h20v20H0z"/>
        </clipPath>
    </defs>
</svg>
