<svg width="32" height="32" viewBox="0 0 32 32" fill="none" xmlns="http://www.w3.org/2000/svg">
    <path d="M1.778 5.333a3.556 3.556 0 0 1 3.555-3.555h21.334a3.556 3.556 0 0 1 3.555 3.555v21.334a3.556 3.556 0 0 1-3.555 3.555H5.333a3.556 3.556 0 0 1-3.555-3.555V5.333z" fill="#727C96"/>
    <path d="M16.534 10.556c-3.137 0-5.84 1.887-7.083 4.61a.317.317 0 0 0 0 .262c1.242 2.723 3.946 4.61 7.083 4.61s5.84-1.887 7.082-4.61a.317.317 0 0 0 0-.263c-1.242-2.722-3.945-4.609-7.082-4.609zm0 8.012c-1.772 0-3.206-1.465-3.206-3.27 0-1.808 1.436-3.27 3.206-3.27 1.771 0 3.205 1.464 3.205 3.27 0 1.805-1.435 3.27-3.205 3.27z" fill="#fff"/>
    <path d="M16.534 17.392c1.133 0 2.052-.938 2.052-2.094s-.919-2.094-2.052-2.094-2.052.938-2.052 2.094.918 2.094 2.052 2.094z" fill="#fff"/>
</svg>
